<svg width="78" height="585" viewBox="0 0 78 585" fill="none" xmlns="http://www.w3.org/2000/svg">
<path d="M74.1114 541.498C74.0068 542.08 73.7667 542.628 73.4115 543.094C73.0563 543.559 72.5965 543.93 72.0715 544.174C70.5305 544.742 68.8949 544.991 67.2596 544.906H9.07761C7.43692 544.999 5.79591 544.729 4.26571 544.114C3.74399 543.863 3.28116 543.5 2.90887 543.048C2.5366 542.597 2.26362 542.068 2.10863 541.498H1.13258L1.13258 582.725L26.0217 585V583.868C22.1352 583.115 18.3346 581.953 14.6801 580.4C12.1539 579.346 9.83795 577.825 7.84778 575.911C6.30035 574.365 5.14145 572.456 4.47064 570.349C3.80972 568.142 3.48058 565.844 3.4946 563.535V554.907H39.823V558.424C39.8484 560.447 39.5517 562.461 38.9445 564.387C38.3062 566.223 37.1512 567.824 35.626 568.986C33.5222 570.493 31.1565 571.571 28.6571 572.163V573.095H52.4335V572.183C48.5293 571.121 45.8549 569.531 44.4104 567.413C42.9756 565.299 42.2631 562.302 42.2631 558.444V554.927H72.784V563.555C72.7939 565.314 72.5906 567.068 72.1789 568.776C71.7592 570.472 70.9643 572.046 69.8559 573.376C68.4352 574.992 66.7037 576.288 64.7707 577.184C61.9254 578.532 58.9387 579.541 55.8692 580.19V581.092L75.2534 580.11V541.498H74.1114ZM0.722664 523.1C1.20093 524.693 1.69869 526.106 2.10863 527.479C2.50215 528.551 2.72621 529.681 2.77233 530.826C2.77097 531.569 2.56128 532.296 2.16838 532.919C1.77548 533.543 1.21597 534.037 0.556694 534.344V535.015L27.1051 536.017V534.915C18.6461 532.951 12.4157 530.642 8.4139 527.99C4.41212 525.338 2.42099 522.081 2.44051 518.22C2.44051 514.812 4.06725 511.806 7.32073 509.201C10.5742 506.595 15.0738 504.591 20.8194 503.188C27.3863 501.662 34.1058 500.939 40.8381 501.033C46.7462 500.937 52.6443 501.566 58.4069 502.907C63.3457 504.163 67.162 505.944 69.8559 508.249C71.0991 509.21 72.1103 510.452 72.811 511.878C73.5117 513.305 73.8832 514.878 73.8967 516.476C73.8967 520.264 72.1431 523.604 68.6358 526.497C65.1286 529.39 59.7278 531.888 52.4335 533.993V534.995L75.7707 534.093V533.411C75.1239 533.12 74.5723 532.644 74.1812 532.04C73.7902 531.436 73.5763 530.729 73.5648 530.004C73.5945 528.838 73.819 527.685 74.2286 526.597C74.6678 525.304 75.1265 523.811 75.6048 522.108C76.1013 520.278 76.3444 518.385 76.3271 516.486C76.3465 512.77 75.3305 509.126 73.3989 505.984C71.2952 502.611 68.5253 499.73 65.2685 497.526C61.5462 495.01 57.4574 493.119 53.1558 491.924C43.2446 489.178 32.7991 489.199 22.8984 491.984C18.5725 493.227 14.4787 495.201 10.7857 497.827C7.51617 500.153 4.79485 503.2 2.82112 506.745C0.953133 510.178 -0.0185394 514.047 0.000404358 517.979C-0.0112381 519.71 0.232269 521.433 0.722664 523.09M1.11304 485.16H2.21598C2.33566 484.598 2.58398 484.073 2.94039 483.628C3.2968 483.184 3.7511 482.833 4.26571 482.605C5.8063 482.035 7.44221 481.786 9.07761 481.873H67.2596C68.9178 481.775 70.5782 482.024 72.1398 482.605C72.6353 482.847 73.0695 483.204 73.4081 483.647C73.7468 484.09 73.9809 484.608 74.0919 485.16H75.2534V468.485H74.1407C74.0262 469.042 73.7913 469.565 73.4534 470.016C73.1156 470.467 72.6833 470.834 72.1886 471.09C70.6385 471.721 68.9727 471.995 67.3084 471.892H9.07761C7.41341 471.993 5.74787 471.719 4.19738 471.09C3.7027 470.834 3.27041 470.467 2.93253 470.016C2.59464 469.565 2.35981 469.042 2.24529 468.485H1.07403L1.11304 485.16ZM6.69605 427.308C9.53309 424.843 13.626 422.949 18.9747 421.626C31.6409 418.981 44.6963 418.981 57.3625 421.626C62.6982 422.963 66.7878 424.857 69.6314 427.308C70.9574 428.336 72.0331 429.665 72.7738 431.192C73.5145 432.719 73.9 434.401 73.9 436.107C73.9 437.813 73.5145 439.495 72.7738 441.022C72.0331 442.548 70.9574 443.878 69.6314 444.905C66.8009 447.371 62.7113 449.265 57.3625 450.587C44.6963 453.233 31.6409 453.233 18.9747 450.587C13.626 449.251 9.53309 447.357 6.69605 444.905C5.37003 443.878 4.29434 442.548 3.55363 441.022C2.81293 439.495 2.42741 437.813 2.42741 436.107C2.42741 434.401 2.81293 432.719 3.55363 431.192C4.29434 429.665 5.37003 428.336 6.69605 427.308ZM2.79187 447.29C4.72705 450.768 7.39491 453.757 10.6002 456.039C14.2878 458.635 18.3862 460.554 22.7129 461.711C32.8571 464.371 43.4899 464.371 53.634 461.711C57.9406 460.548 62.0188 458.629 65.6882 456.039C68.895 453.758 71.5632 450.769 73.4965 447.29C75.3093 443.857 76.2587 440.013 76.2587 436.107C76.2587 432.201 75.3093 428.357 73.4965 424.923C71.5687 421.441 68.8995 418.45 65.6882 416.175C62.0155 413.577 57.9394 411.639 53.634 410.443C43.4979 407.717 32.849 407.717 22.7129 410.443C18.3873 411.633 14.2909 413.571 10.6002 416.175C7.39073 418.452 4.72192 421.442 2.79187 424.923C0.973137 428.355 0.0202942 432.2 0.0202942 436.107C0.0202942 440.014 0.973137 443.859 2.79187 447.29ZM72.1203 365.759C72.6176 365.999 73.0532 366.355 73.3923 366.798C73.7313 367.242 73.9642 367.761 74.0724 368.314H75.2534V351.629H74.1407C74.0443 352.202 73.8172 352.743 73.4779 353.208C73.1386 353.673 72.6967 354.049 72.1886 354.305C70.6269 354.886 68.9666 355.135 67.3084 355.036H9.07761C7.41416 355.14 5.74878 354.87 4.19738 354.245C3.70115 353.988 3.26781 353.619 2.92979 353.166C2.59177 352.714 2.3578 352.188 2.24529 351.629H1.07403V368.324H2.17696C2.28514 367.771 2.51809 367.252 2.85711 366.808C3.19612 366.365 3.63176 366.009 4.12905 365.769C5.69017 365.185 7.35042 364.933 9.00927 365.027H39.4911V390.361H9.07761C7.44151 390.446 5.80544 390.193 4.26571 389.619C3.74929 389.394 3.29342 389.044 2.93664 388.599C2.57986 388.154 2.33264 387.627 2.21598 387.064H1.07403V403.869H2.17696C2.28164 403.287 2.52304 402.74 2.88022 402.276C3.2374 401.811 3.69955 401.443 4.22663 401.203C5.76636 400.629 7.40244 400.377 9.03852 400.462H67.2596C68.8956 400.379 70.5313 400.631 72.0715 401.203C72.5963 401.445 73.0561 401.814 73.4114 402.278C73.7667 402.743 74.0069 403.288 74.1114 403.869H75.2534V387.054H74.1407C74.0243 387.616 73.7783 388.142 73.4234 388.586C73.0685 389.031 72.6149 389.382 72.1008 389.609C70.5606 390.182 68.9249 390.434 67.2889 390.351H41.9605V365.017H67.2596C68.9185 364.922 70.579 365.174 72.1398 365.759M0.742142 333.221C1.22041 334.814 1.71823 336.227 2.12817 337.6C2.52169 338.672 2.74575 339.802 2.79187 340.947C2.7905 341.69 2.58082 342.416 2.18792 343.04C1.79502 343.664 1.2355 344.158 0.576233 344.464V345.146L27.1247 346.148V345.015C18.6656 343.011 12.4352 340.703 8.43338 338.091C4.43159 335.479 2.44047 332.222 2.45999 328.32C2.45999 324.913 4.08673 321.907 7.34022 319.301C10.5937 316.696 15.0933 314.692 20.8389 313.289C27.405 311.758 34.1251 311.035 40.8576 311.134C46.7657 311.038 52.6638 311.667 58.4264 313.008C63.3652 314.251 67.1815 316.028 69.8754 318.339C71.1183 319.303 72.1291 320.547 72.8297 321.975C73.5303 323.403 73.902 324.978 73.9162 326.577C73.9162 330.365 72.1626 333.705 68.6553 336.598C65.1481 339.49 59.7473 341.989 52.453 344.093V345.096L75.7902 344.194V343.612C75.1442 343.32 74.5932 342.844 74.2023 342.24C73.8114 341.636 73.597 340.93 73.5844 340.205C73.614 339.039 73.8385 337.886 74.2481 336.798C74.6873 335.505 75.1461 334.012 75.6243 332.309C76.1208 330.479 76.3639 328.586 76.3466 326.687C76.3661 322.971 75.3501 319.327 73.4184 316.185C71.3124 312.812 68.5431 309.927 65.288 307.717C61.568 305.181 57.4796 303.266 53.1753 302.045C43.2685 299.286 32.8247 299.286 22.9179 302.045C18.593 303.295 14.4999 305.273 10.8052 307.897C7.53371 310.221 4.81197 313.269 2.84067 316.816C0.960762 320.265 -0.0114441 324.158 0.0198822 328.11C0.00824738 329.841 0.251747 331.564 0.742142 333.221ZM2.69424 269.857C4.53522 272.561 7.05933 274.699 9.99509 276.04C13.3722 277.579 17.0378 278.335 20.7316 278.255C24.1259 278.349 27.5061 277.771 30.6872 276.551C33.2854 275.5 35.6812 273.983 37.7635 272.072C39.7453 270.227 41.5079 268.148 43.0147 265.879C44.5275 263.604 45.9428 261.36 47.28 259.125C48.5377 256.982 49.9401 254.933 51.477 252.992C52.9 251.185 54.6212 249.648 56.5622 248.452C58.64 247.235 61.0029 246.625 63.3945 246.689C66.1971 246.547 68.9408 247.548 71.0272 249.475C71.9772 250.397 72.7252 251.517 73.2216 252.759C73.718 254.001 73.9515 255.338 73.9065 256.68C73.9065 263.494 67.637 268.755 55.0981 272.463V273.375L75.7805 273.034V272.353C74.3067 271.22 73.5746 270.048 73.5746 268.835C73.6146 267.89 73.8403 266.963 74.2383 266.109C74.6775 265.047 75.1363 263.765 75.6145 262.241C76.1298 260.474 76.3735 258.635 76.3368 256.79C76.3886 253.728 75.5823 250.716 74.0138 248.112C72.4572 245.539 70.2379 243.458 67.6012 242.099C64.8073 240.755 61.7724 240.021 58.6882 239.941C55.6039 239.862 52.537 240.44 49.681 241.638C47.3044 242.738 45.1467 244.281 43.3172 246.188C41.4828 248.107 39.8018 250.174 38.2906 252.371C36.7354 254.609 35.2226 256.86 33.752 259.125C32.3287 261.331 30.7184 263.403 28.9401 265.318C27.2171 267.158 25.196 268.677 22.9667 269.807C20.4549 270.999 17.7098 271.582 14.9436 271.511C11.6677 271.658 8.4494 270.591 5.87615 268.505C4.75067 267.538 3.85648 266.318 3.2625 264.941C2.66853 263.563 2.39062 262.063 2.45023 260.558C2.45023 251.165 10.3399 244.087 26.1193 239.323V238.321L0.566467 239.794V240.476C2.51855 242.139 3.55315 243.773 3.55315 245.356C3.50423 246.545 3.20101 247.708 2.66499 248.763C1.97874 250.313 1.38869 251.906 0.898346 253.533C0.259819 255.812 -0.0396576 258.177 0.0101089 260.548C-0.0472031 263.822 0.879868 267.034 2.66499 269.747M58.3679 231.016C60.003 232.679 61.909 234.036 63.9996 235.024C65.9575 235.972 68.0916 236.474 70.2561 236.497C72.2971 236.606 74.3057 235.939 75.8976 234.623C76.5852 234.014 77.1306 233.253 77.4938 232.398C77.857 231.543 78.0287 230.615 77.9961 229.683C78.0146 228.909 77.8826 228.139 77.6077 227.418C77.3329 226.697 76.9207 226.04 76.3954 225.484C75.8947 224.938 75.2893 224.505 74.6173 224.212C73.9453 223.919 73.2213 223.772 72.4912 223.78C69.5631 223.78 67.6696 225.484 66.8497 228.891C66.7404 229.541 66.4975 230.159 66.1372 230.705C65.9503 230.877 65.7305 231.007 65.4917 231.086C65.253 231.166 65.0007 231.193 64.7512 231.166C62.9796 231.092 61.2742 230.455 59.8709 229.342C58.1305 228.082 56.6288 226.506 55.4397 224.692L54.5613 225.254C55.4321 227.433 56.7312 229.405 58.3776 231.046M1.07403 206.945H2.17696C2.26925 206.233 2.50314 205.548 2.86414 204.933C3.22514 204.317 3.70555 203.784 4.27548 203.368C5.31009 202.7 7.07993 202.365 9.58511 202.365H32.3075L59.0706 214.18C62.1614 215.516 64.6503 216.689 66.5373 217.698C68.1429 218.511 69.6471 219.521 71.0174 220.704C72.1606 221.727 73.1975 222.869 74.1114 224.111H75.2534V208.779H74.1407C73.6305 210.078 72.8158 211.228 71.7689 212.126C70.7926 212.864 69.6037 213.245 68.3918 213.208C66.8184 213.169 65.2566 212.92 63.7458 212.467C61.4428 211.776 59.1892 210.922 57.0014 209.911L36.4264 201.173L66.1762 188.226C67.6379 187.522 69.2123 187.098 70.8222 186.973C71.6028 186.939 72.3693 187.196 72.9794 187.697C73.5896 188.198 74.0022 188.909 74.1407 189.699H75.2534V171.511H74.1407C73.5558 172.574 72.7202 173.47 71.7104 174.116C69.7324 175.351 67.6519 176.404 65.493 177.263L31.7609 192.294H9.63396C7.12552 192.294 5.35888 191.964 4.32427 191.292C3.75434 190.875 3.27393 190.343 2.91293 189.727C2.55193 189.112 2.31804 188.427 2.22575 187.715H1.07403V206.945ZM1.07403 176.261L26.9587 178.646V177.393C23.0182 176.615 19.149 175.495 15.3926 174.046C12.754 173.057 10.3179 171.572 8.20891 169.667C6.5466 168.122 5.29103 166.171 4.55851 163.995C3.82777 161.685 3.47163 159.268 3.50436 156.84V151.829H66.8106C69.2507 151.829 70.9783 152.15 72.0129 152.831C72.5847 153.244 73.0665 153.774 73.4278 154.388C73.789 155.003 74.0219 155.687 74.1114 156.399H75.2534V138.461H74.1407C74.0362 139.042 73.796 139.588 73.4407 140.052C73.0854 140.516 72.6256 140.885 72.1008 141.127C70.5965 141.694 68.9969 141.946 67.3963 141.868H9.07761C7.44151 141.953 5.80544 141.701 4.26571 141.127C3.73863 140.887 3.27642 140.519 2.91924 140.055C2.56206 139.59 2.32066 139.043 2.21598 138.461H1.07403V176.261ZM1.07403 132.418H2.17696C2.29362 131.855 2.54078 131.328 2.89756 130.883C3.25433 130.439 3.71021 130.089 4.22663 129.863C5.76723 129.293 7.40313 129.044 9.03852 129.132H67.2596C68.9178 129.033 70.5782 129.282 72.1398 129.863C72.6371 130.103 73.0728 130.459 73.4118 130.902C73.7508 131.346 73.9837 131.865 74.0919 132.418H75.2534L75.2534 115.753H74.1407C74.0262 116.31 73.7913 116.833 73.4534 117.284C73.1156 117.735 72.6833 118.102 72.1886 118.359C70.6376 118.985 68.9719 119.255 67.3084 119.151H9.07761C7.41416 119.254 5.74878 118.984 4.19738 118.359C3.7027 118.102 3.27041 117.735 2.93253 117.284C2.59464 116.833 2.35981 116.31 2.24529 115.753H1.07403L1.07403 132.418ZM1.07403 61.6697H2.17696C2.80656 60.1887 3.6452 58.8111 4.66586 57.5811C5.64973 56.476 6.88324 55.6363 8.2577 55.1359C10.0642 54.5035 11.9453 54.1226 13.8504 54.0036C16.0953 53.8165 18.9161 53.723 22.3128 53.723H57.9677L1.07403 74.6369V76.11L62.5648 96.3325H9.07761C7.41341 96.4333 5.74787 96.1597 4.19738 95.5309C3.7027 95.2744 3.27041 94.9072 2.93253 94.4562C2.59464 94.0052 2.35981 93.4821 2.24529 92.9254H1.07403V109.731H2.17696C2.29846 109.162 2.5468 108.629 2.90244 108.176C3.25809 107.722 3.71132 107.359 4.22663 107.115C5.75684 106.5 7.39784 106.23 9.03852 106.324H67.2596C68.9002 106.232 70.5408 106.502 72.0715 107.115C72.5846 107.361 73.0355 107.724 73.3893 108.178C73.7432 108.632 73.9902 109.163 74.1114 109.731H75.2534V97.014L18.8381 78.495L75.2534 58.2825V45.4456H74.1407C73.7169 46.5652 72.9404 47.5071 71.9349 48.1212C70.2309 49.0766 68.4554 49.8909 66.6252 50.5563H22.3518C18.9334 50.5974 15.5155 50.4468 12.1131 50.1053C10.0013 49.9269 7.93974 49.3494 6.03235 48.4018C4.5261 47.5763 3.22135 46.4115 2.21598 44.9946H1.07403V61.6697ZM74.0724 0C73.9694 0.582458 73.7298 1.13043 73.3744 1.59659C73.019 2.06274 72.5584 2.43308 72.0325 2.67564C70.4914 3.2439 68.8559 3.49256 67.2206 3.40719L9.07761 3.40719C7.43692 3.50027 5.79591 3.23028 4.26571 2.61551C3.74399 2.36466 3.28116 2.00111 2.90887 1.54971C2.5366 1.0983 2.26362 0.569681 2.10863 0L1.13258 0V41.2267L26.0217 43.5015V42.3691C22.1311 41.6403 18.324 40.5019 14.6606 38.972C12.1344 37.9181 9.81841 36.3963 7.82824 34.4825C6.2808 32.9365 5.12197 31.028 4.45116 28.9208C3.79023 26.7135 3.4611 24.4157 3.47512 22.1065V13.4783L39.823 13.4783V16.9256C39.8538 18.9657 39.5569 20.9971 38.9445 22.9382C38.3062 24.7749 37.1512 26.3757 35.626 27.5379C33.5222 29.0446 31.1565 30.1229 28.6571 30.7146V31.6265L52.4335 31.6265V30.7146C48.5293 29.6524 45.8549 28.0623 44.4104 25.9446C42.9756 23.8301 42.2631 20.8338 42.2631 16.9256V13.4082L72.784 13.4082V22.0364C72.7939 23.7957 72.5906 25.5495 72.1789 27.2573C71.7592 28.9535 70.9643 30.5275 69.8559 31.857C68.4352 33.4733 66.7037 34.7699 64.7707 35.665C61.9233 36.9965 58.9367 37.9884 55.8692 38.6212V39.5231L75.2241 38.6212V0.0200617L74.0724 0Z" fill="#F1EDEC"/>
</svg>
