<svg xmlns="http://www.w3.org/2000/svg" width="1428.18" height="259.239" viewBox="0 0 1428.18 259.239"><path d="M479.8,3.62V38.273c0,4.247-.161,8.51-2.011,12.194a13.374,13.374,0,0,1-12.6,7.706,16.874,16.874,0,0,1-9.46-2.735l4.006-6.9a8.213,8.213,0,0,0,5.615,1.931,5.331,5.331,0,0,0,5.373-3.6c.483-1.207.885-3.121.885-8.591V3.62Z"/><path d="M530.19,11.311H508.841V24.873h20.705v7.69H508.841v16.86H530.19v7.69H500.668V3.6H530.19Z"/><path d="M548.8,0V57.112h8.188V19.74l38.82,40.67V3.62H587.64V40.67Z"/><path d="M616.678,0V57.112h8.188V19.74l38.82,40.67V3.62h-8.172V40.67Z"/><path d="M695.7,34.011,678.133,3.6h9.315l12.339,21.429L712.159,3.6h9.3L703.89,34.011v23.1H695.7Z"/><path d="M789.413,11.311H770.8V24.873h17.97v7.69H770.8v24.55H762.61V3.6h26.8Z"/><path d="M824.87,18.372,832.817,36.5h-16.2Zm-26.3,38.739H807.4l5.856-12.918h22.86l5.615,12.918h8.832L825.208.482Z"/><path d="M873.5,3.62h-8.189V57.128H873.5Z"/><path d="M902.542,28.153h2.574c2.253,0,11.39-.241,11.39-8.736,0-7.545-7.143-8.269-11.148-8.269h-2.8v17ZM903.91,3.62c6.5,0,10.666.8,14.125,3.121,5.856,3.925,6.338,10.264,6.338,12.6A14.68,14.68,0,0,1,912.5,34.267l16.683,22.861h-9.862l-15.316-21.9h-1.448v21.9H894.37V3.62Z"/><path d="M956.372,34.011,938.8,3.6h9.315l12.339,21.429L972.83,3.6h9.3L964.561,34.011v23.1h-8.189Z"/><path d="M0,138.629c0,5.277,3.3,9.122,9.46,9.122a8.771,8.771,0,0,0,6.451-2.268c1.561-1.529,2.365-3.878,2.365-7.433a18.478,18.478,0,0,0-.965-6.355H8.623v7.095H11.5v-3.378h3.668a10.253,10.253,0,0,1,.338,3.008c0,4.086-2.848,5.373-6.162,5.373-3.395,0-6.628-1.271-6.628-5.083,0-2.076,1.062-3.33,3.1-3.4v-3.877a5.049,5.049,0,0,0-4.36,2.043A8.481,8.481,0,0,0,0,138.629ZM.483,164.82H17.89v-3.507H3.443l14.447-6.741V149.44H.483V152.9H14.173L.483,159.431Zm-.048,6.13H17.89v-3.733H.434Zm7.658,11.535H3.234v-3.3c0-1.706.837-2.574,2.365-2.574a2.4,2.4,0,0,1,2.51,2.622v3.25Zm-7.61,3.684H17.89v-3.8h-7.03v-3.443c0-1.464.676-1.705,1.85-1.9,1.753-.29,3.459-.5,5.18-.74v-4.119a4.621,4.621,0,0,1-1.995.676c-.965.177-1.947.322-2.96.434-2.236.258-3.427.724-3.652,3.073-.676-2.445-2.14-3.636-4.263-3.636a4.452,4.452,0,0,0-3.153,1.3A5.973,5.973,0,0,0,.5,178.35v7.819ZM8.092,197.7H3.234v-3.3c0-1.706.837-2.574,2.365-2.574a2.4,2.4,0,0,1,2.51,2.622v3.25Zm-7.61,3.684H17.89v-3.8h-7.03v-3.443c0-1.464.676-1.705,1.85-1.9,1.753-.29,3.459-.515,5.18-.74v-4.119a4.846,4.846,0,0,1-1.995.676c-.965.161-1.947.306-2.96.434-2.236.258-3.427.724-3.652,3.089-.676-2.461-2.14-3.636-4.263-3.636a4.453,4.453,0,0,0-3.153,1.3A5.969,5.969,0,0,0,.5,193.585v7.8Zm3.411,9.459,7.416-2.413v4.987ZM.483,212.971l17.407,6.274V215.69l-3.748-1.3V207.5l3.748-1.255V202.5L.483,208.547Zm0,17.648h2.88v-5.18H17.874v-3.748H3.362V216.51H.483Zm-.29,6.789c0,3.749,1.641,6.854,5.422,6.886a3.953,3.953,0,0,0,3.346-1.641,13.949,13.949,0,0,0,1.931-4.891,9.267,9.267,0,0,1,.8-2.413,1.653,1.653,0,0,1,1.5-.772c1.737,0,2.461,1.641,2.461,3.3,0,2.027-.981,3.153-3.153,3.153h-.145v3.8c4.328,0,5.969-2.445,5.969-6.8,0-4.183-2.124-7.336-5.663-7.336-2.96,0-4.07,2.365-4.665,4.89-.885,3.765-1.174,4.859-2.8,4.859-1.593,0-2.365-1.351-2.365-2.864a2.566,2.566,0,0,1,2.526-2.815H5.47v-3.588H5.357C1.689,231.166.193,234.062.193,237.408Z"/><path d="M1428.18,257.147v-2.091a6.63,6.63,0,0,1-4.71-3.877c-.92-2.028-1.37-5.068-1.37-9.122V131.694c0-4.2.45-7.271,1.37-9.234a6.658,6.658,0,0,1,4.71-3.781v-2.091h-30.84v2.091a7.046,7.046,0,0,1,4.83,3.781c.98,1.963,1.46,5.035,1.46,9.234V242.057c0,4.2-.48,7.271-1.46,9.234a7.046,7.046,0,0,1-4.83,3.781v2.091h30.84Zm-93.37,0v-2.091a7.025,7.025,0,0,1-4.83-3.781c-.98-1.963-1.46-5.035-1.46-9.234V131.469c0-4.054.48-7.062,1.46-9.025a7.025,7.025,0,0,1,4.83-3.781v-2.091h-31.05v2.091a7.029,7.029,0,0,1,4.82,3.781q1.47,2.944,1.47,9.025V242.041c0,4.054-.5,7.11-1.47,9.121a6.95,6.95,0,0,1-4.82,3.878v2.091h31.05Zm61.9-2.107a38.191,38.191,0,0,1-7.03-7.24,117.045,117.045,0,0,1-7.03-11.02q-5.88-10.063-12.06-21.815-6.21-11.752-12.39-24.228-6.21-12.477-11.65-24.872l16.15-20.56q6.93-8.592,11.54-13.643a65.113,65.113,0,0,1,8.49-7.979,42.167,42.167,0,0,1,8.71-5.036v-2.091h-33.79v2.091a14.379,14.379,0,0,1,5.99,3.041,6.378,6.378,0,0,1,1.78,4.713,19.116,19.116,0,0,1-2.41,8.189,79.906,79.906,0,0,1-7.66,11.744l-24.34,32.321q6.075,12.162,12.07,23.5,5.97,11.342,11.32,20.882,5.355,9.557,9.54,16.056a52.416,52.416,0,0,0,7.34,10.183,22.822,22.822,0,0,0,7.66,5.357,31.575,31.575,0,0,0,9.74,2.092l7.98.418V255.04Zm-116.46-.837a33.557,33.557,0,0,0,11.44-13.852A47.653,47.653,0,0,0,1295.78,220q0-11.124-3.16-18.887a44.6,44.6,0,0,0-8.28-13.433,65.017,65.017,0,0,0-11.44-9.975q-6.3-4.295-12.48-8.076a97.439,97.439,0,0,1-11.33-7.979,36.666,36.666,0,0,1-8.4-9.653,24.946,24.946,0,0,1-3.25-13.015q0-9.025,5.15-14.479a17.484,17.484,0,0,1,13.32-5.454q18.9,0,29.17,35.667h1.67l-.63-39.238h-1.25q-3.135,4.2-6.5,4.2a13.322,13.322,0,0,1-5.04-1.255c-1.96-.837-4.34-1.7-7.12-2.622a33.055,33.055,0,0,0-10.07-1.368,29.533,29.533,0,0,0-16.06,4.408A30.6,30.6,0,0,0,1229.06,131a38.6,38.6,0,0,0-3.99,17.841A38.646,38.646,0,0,0,1228.22,165a39.734,39.734,0,0,0,8.4,12.066,93.4,93.4,0,0,0,11.44,9.54q6.18,4.416,12.48,8.607a82.74,82.74,0,0,1,11.44,9.122,39.838,39.838,0,0,1,8.29,11.326,34.228,34.228,0,0,1,3.15,15.219q0,10.69-5.45,17.2t-14.69,6.5q-26.01,0-39.24-44.9h-1.88l2.73,48.473h1.26q4.6-5.671,9.02-5.663a15.243,15.243,0,0,1,6.29,1.673,74.01,74.01,0,0,0,8.82,3.362,43.551,43.551,0,0,0,13.02,1.673A28.817,28.817,0,0,0,1280.25,254.2Zm-153.38,4.2,26.64-108.271L1180.15,258.4h2.3l24.76-104.281q2.73-11.343,5.04-18.26a46.968,46.968,0,0,1,4.94-10.907,21.363,21.363,0,0,1,6.19-6.291v-2.091h-28.75v2.091a14.184,14.184,0,0,1,7.24,5.245q2.2,3.354,2.21,9.025a63.589,63.589,0,0,1-1.16,10.7c-.77,4.343-1.72,9.3-2.83,14.9l-12.6,58.125-17.84-77.221a54.158,54.158,0,0,1-1.67-7.449,38.693,38.693,0,0,1-.42-5.148,8.018,8.018,0,0,1,5.66-8.189v-2.091H1140.1v2.091a12.163,12.163,0,0,1,4.19,2.832,16.531,16.531,0,0,1,3.04,5.357,97.175,97.175,0,0,1,3.05,10.071l.2,1.255-18.46,78.476-17.2-77.221c-.57-2.945-1.02-5.39-1.37-7.337a29.355,29.355,0,0,1-.53-5.035q0-6.3,5.66-8.4v-2.091h-34.41v2.091a18.877,18.877,0,0,1,6.08,5.872c1.55,2.381,2.87,6.081,3.99,11.117l30.21,122.75h2.32Zm-107.11-11.857q-6.825-8.083-10.49-23.295t-3.67-36.407q0-21.187,3.67-36.406t10.49-23.3q6.825-8.083,16.26-8.076t16.27,8.076q6.795,8.085,10.49,23.3,3.66,15.2,3.67,36.406,0,21.188-3.67,36.407t-10.49,23.295q-6.825,8.085-16.27,8.076T1019.76,246.545Zm36.94,7.449a49.4,49.4,0,0,0,16.15-14.9,73.324,73.324,0,0,0,10.49-22.974,110.206,110.206,0,0,0,3.67-29.264,110.038,110.038,0,0,0-3.67-29.376,73.434,73.434,0,0,0-10.49-22.877,49.5,49.5,0,0,0-16.15-14.9,43.371,43.371,0,0,0-41.35,0,49.134,49.134,0,0,0-16.152,14.9,75.035,75.035,0,0,0-10.6,22.877,106.486,106.486,0,0,0-3.78,29.376,106.644,106.644,0,0,0,3.78,29.264A74.9,74.9,0,0,0,999.2,239.1a49.134,49.134,0,0,0,16.152,14.9,43.371,43.371,0,0,0,41.35,0Zm-123.912,3.153v-2.091a7.032,7.032,0,0,1-4.827-3.781c-.981-1.963-1.464-5.035-1.464-9.234V131.469q0-6.081,1.464-9.025a7.032,7.032,0,0,1,4.827-3.781v-2.091h-31.05v2.091a7.032,7.032,0,0,1,4.827,3.781q1.472,2.944,1.464,9.025V242.041c0,4.054-.5,7.11-1.464,9.121a6.954,6.954,0,0,1-4.827,3.878v2.091h31.05Zm61.906-2.107a37.955,37.955,0,0,1-7.031-7.24,116.425,116.425,0,0,1-7.03-11.02q-5.887-10.063-12.066-21.815-6.2-11.752-12.388-24.228t-11.647-24.872l16.152-20.56q6.926-8.592,11.535-13.643a65.3,65.3,0,0,1,8.494-7.979,42.171,42.171,0,0,1,8.7-5.036v-2.091H955.632v2.091a14.289,14.289,0,0,1,5.985,3.041A6.378,6.378,0,0,1,963.4,126.4a19.154,19.154,0,0,1-2.413,8.189,79.7,79.7,0,0,1-7.658,11.744l-24.341,32.321q6.081,12.162,12.066,23.5t11.326,20.882q5.356,9.557,9.54,16.056a52.618,52.618,0,0,0,7.352,10.183,23.034,23.034,0,0,0,7.658,5.357,31.638,31.638,0,0,0,9.765,2.092l7.98.418V255.04Zm-116.669-5.245q7.963-9.435,7.979-26.432v-91.7q0-6.3,1.464-9.234a7.032,7.032,0,0,1,4.827-3.781v-2.091H859.138v2.091c3.073.708,5.244,2.027,6.5,3.99s1.882,5.245,1.882,9.862v91.7q0,16.168-3.153,23.295c-2.091,4.762-5.6,7.127-10.489,7.127q-6.3,0-9.122-3.989T841.3,237.617c-.418-5.728-2.8-8.607-7.127-8.607a6.318,6.318,0,0,0-5.035,2.2,8.891,8.891,0,0,0-1.882,5.984,18.041,18.041,0,0,0,3.78,11.117,25.943,25.943,0,0,0,10.184,7.979,33.973,33.973,0,0,0,14.366,2.945Q870.038,259.239,878.025,249.795ZM776.253,150.549l16.362,53.717H760.729Zm-13,106.6v-2.091q-10.907-3.571-10.907-15.107,0-6.708,3.781-19.933l3.153-11.116H793.9l9.025,29.585a37,37,0,0,1,1.577,5.985,29.155,29.155,0,0,1,.321,4.086q0,5.236-5.035,6.5v2.091h32.739v-2.091a16.555,16.555,0,0,1-3.668-2.944,20.876,20.876,0,0,1-3.154-4.923,74.42,74.42,0,0,1-3.459-9.122l-38.4-122.959h-2.092L748.808,223.17q-3.355,10.906-5.776,17.1a38.246,38.246,0,0,1-4.939,9.444,21.115,21.115,0,0,1-6.081,5.357v2.091h31.242Zm-40.493,0v-2.091q-4.825-1.038-6.612-3.99c-1.19-1.963-1.785-5.309-1.785-10.071V120.98h3.153a23.246,23.246,0,0,1,18.469,9.443q6.926,9.025,10.7,28.331h1.673l-2.3-42.182H664.009l-2.3,42.182h1.673q3.789-19.522,10.6-28.427,6.83-8.905,18.565-9.331H695.7V241.011c0,4.762-.6,8.108-1.786,10.071s-3.4,3.282-6.612,3.99v2.091h35.457Zm-100.935-106.6,16.362,53.717H606.3Zm-13.015,106.6v-2.091Q597.9,251.485,597.9,239.949q0-6.708,3.781-19.933l3.153-11.116h34.621l9.025,29.585a36.989,36.989,0,0,1,1.577,5.985,29.146,29.146,0,0,1,.321,4.086q0,5.236-5.035,6.5v2.091h32.739v-2.091a16.553,16.553,0,0,1-3.668-2.944,20.876,20.876,0,0,1-3.154-4.923,74.42,74.42,0,0,1-3.459-9.122L629.4,115.108h-2.092L594.365,223.17q-3.355,10.906-5.776,17.1a38.246,38.246,0,0,1-4.939,9.444,21.326,21.326,0,0,1-6.081,5.357v2.091h31.242ZM526.152,121.173q26.859,0,26.851,28.331,0,15.733-7.031,24.019-7.021,8.3-19.836,8.285h-8.607V121.173Zm-33.366-2.51a6.989,6.989,0,0,1,4.826,3.877c.982,2.027,1.464,5.068,1.464,9.122V242.025c0,4.054-.5,7.11-1.464,9.121a6.946,6.946,0,0,1-4.826,3.877v2.092h30.84v-2.092a6.948,6.948,0,0,1-4.617-3.877q-1.471-3.04-1.464-9.121v-55.6h6.918a21.092,21.092,0,0,1,8.7,1.577,14.213,14.213,0,0,1,5.985,5.566,50.246,50.246,0,0,1,4.827,11.326L555.3,238.887a54.437,54.437,0,0,0,4.939,10.7,13.407,13.407,0,0,0,6.194,5.357,29.443,29.443,0,0,0,10.071,1.786l8.189.418v-2.091a15.319,15.319,0,0,1-3.877-2.413,13.588,13.588,0,0,1-3.041-4.505,60.963,60.963,0,0,1-3.153-9.444l-9.862-32.529a40.747,40.747,0,0,0-4.714-11.535,20.109,20.109,0,0,0-7.448-6.918,52.015,52.015,0,0,0-12.388-4.408v-.627q31.9-5.865,31.886-32.53,0-16.145-11.857-24.872-11.872-8.71-34.09-8.7H492.786ZM423.753,257.147v-2.091q-4.825-1.038-6.612-3.99c-1.19-1.963-1.786-5.309-1.786-10.071V197.976L437.17,147.2q3.789-8.808,6.5-14.157a37.648,37.648,0,0,1,11.744-14.367v-2.091H427.083v2.091a15.731,15.731,0,0,1,6.194,4.5,10.332,10.332,0,0,1,1.995,6.4A34.02,34.02,0,0,1,433.9,138.4a100.474,100.474,0,0,1-4.714,12.806l-16.152,39.029L389.116,133.8c-1.544-3.781-2.3-6.709-2.3-8.816q0-4.827,5.035-6.291V116.6H358.276v2.091a13.591,13.591,0,0,1,4.826,4.618,75.543,75.543,0,0,1,5.872,11.744l27.7,64v41.973c0,4.762-.6,8.108-1.785,10.071s-3.395,3.282-6.612,3.99v2.091h35.473Zm-56.645,0,4.408-49.1h-2.3a132.59,132.59,0,0,1-6.194,21.928,43.2,43.2,0,0,1-8.076,13.642,25.45,25.45,0,0,1-10.49,6.918,40.921,40.921,0,0,1-13.224,1.995H322V132.515q0-6.925,1.786-9.862c1.19-1.963,3.394-3.282,6.612-3.99v-2.091H297.239v2.091a6.718,6.718,0,0,1,4.923,3.877c.9,2.027,1.367,5,1.367,8.913V242.025c0,4.054-.467,7.11-1.367,9.121a6.738,6.738,0,0,1-4.923,3.877v2.092h69.869Zm-81,0v-2.091a6.646,6.646,0,0,1-4.714-3.877q-1.375-3.042-1.367-9.122V131.694c0-4.2.45-7.271,1.367-9.234a6.675,6.675,0,0,1,4.714-3.781v-2.091h-30.84v2.091a7.029,7.029,0,0,1,4.826,3.781c.981,1.963,1.464,5.035,1.464,9.234V242.057c0,4.2-.483,7.271-1.464,9.234a7.029,7.029,0,0,1-4.826,3.781v2.091h30.84Zm-130.714,0v-2.091a30.364,30.364,0,0,1-7.561-4.714,16.83,16.83,0,0,1-4.5-6.821,39.541,39.541,0,0,1-2.092-10.6q-.531-6.395-.531-16.056V149.294l38.611,107.853h2.735l37.356-116.669V242.041c0,4.2-.5,7.271-1.464,9.234a7.03,7.03,0,0,1-4.827,3.781v2.091h31.05v-2.091a6.989,6.989,0,0,1-4.826-3.877c-.982-2.028-1.464-5.068-1.464-9.122V131.694c0-4.054.482-7.094,1.464-9.121a6.988,6.988,0,0,1,4.826-3.878V116.6h-23.5l-34.2,107.016L149.1,116.6H125.389v2.091a10.066,10.066,0,0,1,4.939,4.2,69.581,69.581,0,0,1,4.5,10.071V216.9A175.929,175.929,0,0,1,134,236.3a32.471,32.471,0,0,1-3.154,11.535,21.715,21.715,0,0,1-6.29,7.24v2.091h30.84ZM41.458,118.663A6.774,6.774,0,0,1,46.4,122.54c.9,2.027,1.367,5.068,1.367,9.122V242.025c0,4.054-.5,7.11-1.464,9.121a7.629,7.629,0,0,1-4.826,4.087v1.882h76.159l4.2-47.218h-2.091a108.123,108.123,0,0,1-6.4,21.51,42.262,42.262,0,0,1-8.285,12.9,25.155,25.155,0,0,1-10.281,6.4,41.824,41.824,0,0,1-12.6,1.786H66.234V183.674h6.5a34.377,34.377,0,0,1,11.02,1.673,18.106,18.106,0,0,1,8.494,6.291c2.381,3.088,4.328,7.48,5.872,13.224h1.673V159.784H98.12Q95.176,170.908,89.3,175q-5.888,4.1-16.571,4.086h-6.5V121.173H82.177a39.473,39.473,0,0,1,9.653,1.158,21.11,21.11,0,0,1,8.495,4.408,29.4,29.4,0,0,1,7.03,9.653,76.567,76.567,0,0,1,5.454,16.892h1.673l-1.673-36.712H41.458Z"/></svg>