<svg width="1412" height="141" viewBox="0 0 1412 141" fill="none" xmlns="http://www.w3.org/2000/svg">
<g clip-path="url(#clip0_21_1424)">
<mask id="mask0_21_1424" style="mask-type:luminance" maskUnits="userSpaceOnUse" x="0" y="0" width="1412" height="141">
<path d="M1412 0H0V141H1412V0Z" fill="white"/>
</mask>
<g mask="url(#mask0_21_1424)">
<path d="M1396.94 136.084C1401.78 132.697 1405.61 128.038 1407.99 122.615C1410.75 116.378 1412.11 109.608 1411.97 102.785C1412.14 96.5154 1411.1 90.2725 1408.9 84.4C1407.03 79.5924 1404.32 75.1617 1400.89 71.3193C1397.6 67.6542 1393.89 64.3917 1389.83 61.599C1385.77 58.8217 1381.73 56.1833 1377.73 53.7393C1373.87 51.4101 1370.17 48.8117 1366.67 45.9631C1363.37 43.3548 1360.57 40.1759 1358.38 36.5761C1356.2 32.7214 1355.11 28.3428 1355.23 23.9119C1354.98 18.7302 1356.78 13.6591 1360.23 9.80362C1361.88 8.04691 1363.89 6.66489 1366.11 5.75008C1368.34 4.83527 1370.74 4.40877 1373.14 4.4991C1385.34 4.4991 1394.76 16.0709 1401.41 39.2145H1403.02L1402.41 1.02756H1401.19C1400.54 2.15763 1399.62 3.1161 1398.53 3.82539C1397.43 4.53468 1396.19 4.97485 1394.89 5.1101C1393.21 5.02692 1391.55 4.61171 1390.03 3.88811C1388.12 3.05494 1385.8 2.22173 1383.09 1.33302C1379.93 0.380343 1376.63 -0.0693926 1373.33 2.5481e-06C1367.84 -0.0976765 1362.44 1.38648 1357.77 4.27688C1353.21 7.17859 1349.52 11.2794 1347.1 16.1357C1344.7 21.2976 1343.38 26.9051 1343.24 32.6035C1343.11 38.3018 1344.15 43.9669 1346.3 49.2402C1348.25 53.6366 1351 57.6227 1354.43 60.988C1357.86 64.3793 1361.56 67.4904 1365.48 70.2917C1369.49 73.0689 1373.53 75.8462 1377.59 78.6234C1381.53 81.2523 1385.23 84.2262 1388.64 87.5105C1391.96 90.7012 1394.67 94.464 1396.66 98.6194C1398.81 103.249 1399.86 108.316 1399.73 113.422C1400 119.436 1398.12 125.348 1394.42 130.085C1392.69 132.167 1390.51 133.82 1388.04 134.918C1385.57 136.016 1382.88 136.529 1380.19 136.418C1363.38 136.418 1350.7 121.837 1342.15 92.6762H1340.33L1343.09 139.889H1344.31C1347.3 136.223 1350.2 134.335 1353.04 134.335C1355.17 134.431 1357.26 134.99 1359.15 135.973C1361.93 137.251 1364.78 138.346 1367.69 139.25C1371.79 140.433 1376.04 140.985 1380.3 140.889C1386.2 141.029 1392 139.31 1396.88 135.973M1312.3 138.75V136.917C1311.03 136.751 1309.8 136.319 1308.69 135.65C1307.59 134.98 1306.63 134.088 1305.89 133.029C1304.5 129.961 1303.9 126.589 1304.15 123.226V6.3876H1307.22C1310.7 6.42736 1314.13 7.27814 1317.23 8.87311C1320.34 10.4681 1323.03 12.7638 1325.1 15.5802C1329.58 21.4309 1333.03 30.6235 1335.47 43.1581H1337.1L1334.86 2.08293H1255.39L1253.15 43.1581H1254.79C1257.22 30.4939 1260.65 21.2365 1265.07 15.3858C1267.16 12.5733 1269.88 10.2887 1273 8.7125C1276.12 7.1363 1279.57 6.31183 1283.06 6.30429H1286.1V123.198C1286.34 126.558 1285.76 129.926 1284.39 133.002C1283.64 134.057 1282.69 134.946 1281.58 135.615C1280.48 136.284 1279.25 136.718 1277.98 136.89V138.917L1312.3 138.75ZM1225.05 139.473C1227.81 138.584 1230.57 137.723 1232.87 136.917C1234.79 136.193 1236.81 135.78 1238.87 135.695C1240.19 135.698 1241.49 136.084 1242.61 136.808C1243.73 137.531 1244.62 138.562 1245.17 139.778H1246.41L1248.23 90.7321H1246.19C1242.69 106.396 1238.55 117.912 1233.78 125.281C1229.05 132.613 1223.22 136.39 1216.31 136.39C1213.11 136.289 1209.98 135.419 1207.18 133.854C1204.38 132.288 1202 130.073 1200.22 127.392C1194.94 119.901 1191.27 111.389 1189.45 102.396C1186.71 90.2718 1185.41 77.8636 1185.58 65.4315C1185.41 54.5039 1186.54 43.595 1188.95 32.9379C1190.54 25.3063 1193.82 18.1313 1198.54 11.9421C1200.26 9.64703 1202.48 7.78161 1205.04 6.49075C1207.59 5.19988 1210.41 4.51836 1213.27 4.4991C1216.8 4.59418 1220.26 5.52064 1223.37 7.20404C1226.48 8.88744 1229.16 11.2808 1231.18 14.1916C1236.32 20.6533 1240.79 30.6328 1244.59 44.1302H1246.44L1244.81 1.02756H1243.59C1243.07 2.22165 1242.21 3.24011 1241.13 3.96329C1240.05 4.68647 1238.78 5.08434 1237.48 5.1101C1235.39 5.04438 1233.33 4.63146 1231.37 3.88811C1229.08 3.05494 1226.4 2.22173 1223.33 1.33302C1220.06 0.412661 1216.67 -0.0361172 1213.27 2.5481e-06C1206.62 -0.0367759 1200.1 1.84257 1194.48 5.41555C1188.42 9.29453 1183.25 14.4145 1179.3 20.4404C1174.76 27.3057 1171.32 34.8515 1169.13 42.7971C1164.19 61.102 1164.19 80.3978 1169.13 98.7027C1171.36 106.688 1174.9 114.244 1179.61 121.059C1183.76 127.11 1189.22 132.141 1195.58 135.779C1201.76 139.259 1208.73 141.058 1215.81 141C1218.91 141.023 1222 140.574 1224.96 139.667M1143.62 130.891C1149.74 124.133 1152.79 114.561 1152.77 102.174V35.132C1152.69 29.7753 1152.99 24.4197 1153.68 19.1073C1154.05 15.7783 1155.12 12.5675 1156.83 9.69251C1158.41 7.39328 1160.5 5.49243 1162.94 4.13805V2.08293H1134.19V4.13805C1137.22 5.62261 1139.92 7.71076 1142.13 10.2757C1144.2 13.042 1145.54 16.2905 1146.02 19.7183C1146.88 25.0898 1147.26 30.5265 1147.16 35.9651V101.341C1147.16 111.969 1145.09 119.976 1140.97 125.364C1138.79 128.075 1136.01 130.221 1132.84 131.623C1129.67 133.024 1126.21 133.64 1122.75 133.418C1105.25 133.418 1096.5 122.522 1096.52 100.73V15.7191C1096.33 12.8689 1096.81 10.0134 1097.93 7.38736C1098.44 6.52823 1099.12 5.7853 1099.93 5.20646C1100.73 4.62763 1101.66 4.22578 1102.63 4.02694V1.97181H1072.23V4.02694C1073.25 4.17764 1074.23 4.55777 1075.09 5.13934C1075.95 5.72091 1076.67 6.48909 1077.2 7.38736C1078.26 10.0301 1078.71 12.8771 1078.53 15.7191V102.174C1078.53 114.561 1081.92 124.133 1088.7 130.891C1095.48 137.649 1105.17 141.018 1117.78 141C1128.83 141 1137.45 137.63 1143.62 130.891ZM995.36 6.52643H1002.68C1008.96 6.29676 1015.18 7.71251 1020.75 10.6343C1026.31 13.5561 1031.02 17.8832 1034.41 23.1898C1041.79 34.2987 1045.47 50.1012 1045.47 70.5972C1045.47 91.0931 1041.79 106.896 1034.41 118.005C1031.02 123.315 1026.31 127.645 1020.75 130.567C1015.19 133.49 1008.96 134.903 1002.68 134.668H995.36V6.52643ZM1002.68 138.945C1014.34 139.205 1025.86 136.329 1036.05 130.613C1045.53 125.103 1053.17 116.886 1057.99 107.007C1063.09 95.4945 1065.73 83.0329 1065.73 70.4305C1065.73 57.8282 1063.09 45.3666 1057.99 33.8545C1053.17 23.9748 1045.53 15.7584 1036.05 10.248C1025.86 4.54494 1014.34 1.66927 1002.68 1.9163H971.507V3.97142C972.527 4.15203 973.491 4.5701 974.321 5.19222C975.151 5.81435 975.825 6.62327 976.288 7.55407C977.319 10.3967 977.761 13.4208 977.587 16.4412V124.114C977.766 127.208 977.324 130.305 976.288 133.224C975.82 134.151 975.144 134.956 974.315 135.578C973.486 136.199 972.524 136.62 971.507 136.806V138.834L1002.68 138.945ZM897.654 128.641C892.586 121.959 889.115 114.196 887.51 105.951C882.755 82.5585 882.755 58.4415 887.51 35.0486C889.115 26.804 892.586 19.0406 897.654 12.3586C899.503 9.9181 901.888 7.93974 904.623 6.57787C907.358 5.21601 910.369 4.50749 913.422 4.50749C916.474 4.50749 919.486 5.21601 922.221 6.57787C924.956 7.93974 927.341 9.9181 929.19 12.3586C934.257 19.0446 937.736 26.8055 939.362 35.0486C944.116 58.4415 944.116 82.5585 939.362 105.951C937.736 114.194 934.257 121.955 929.19 128.641C927.341 131.082 924.956 133.06 922.221 134.422C919.486 135.784 916.474 136.492 913.422 136.492C910.369 136.492 907.358 135.784 904.623 134.422C901.888 133.06 899.503 131.082 897.654 128.641ZM933.585 135.89C939.833 132.299 945.191 127.333 949.257 121.365C953.893 114.602 957.334 107.085 959.428 99.1471C964.182 80.404 964.182 60.7625 959.428 42.0194C957.327 34.0837 953.886 26.5688 949.257 19.8016C945.19 13.8416 939.832 8.88506 933.585 5.30444C927.438 1.95006 920.555 0.192988 913.56 0.192988C906.565 0.192988 899.682 1.95006 893.535 5.30444C887.299 8.89976 881.944 13.8535 877.863 19.8016C873.228 26.5764 869.761 34.0875 867.609 42.0194C862.708 60.7435 862.708 80.423 867.609 99.1471C869.754 107.082 873.221 114.594 877.863 121.365C881.944 127.321 887.298 132.284 893.535 135.89C899.682 139.244 906.565 141.001 913.56 141.001C920.555 141.001 927.438 139.244 933.585 135.89ZM811.031 6.52643C828.388 6.52643 837.067 15.7283 837.067 34.1321C837.067 44.3153 834.801 52.1101 830.268 57.5164C827.868 60.2544 824.877 62.4057 821.524 63.8062C818.172 65.2068 814.545 65.8197 810.92 65.5982H802.628V6.52643H811.031ZM778.692 4.08254C779.711 4.30959 780.664 4.76801 781.478 5.42276C782.293 6.0775 782.947 6.91111 783.391 7.85953C784.481 10.6886 784.961 13.7175 784.801 16.7467V124.225C784.964 127.255 784.483 130.284 783.391 133.113C782.952 134.067 782.3 134.908 781.485 135.567C780.67 136.227 779.714 136.689 778.692 136.917V138.945H808.598V136.917C807.614 136.665 806.7 136.191 805.925 135.532C805.149 134.873 804.532 134.046 804.121 133.113C803.029 130.284 802.548 127.255 802.711 124.225V70.0973H809.428C812.267 70.0191 815.092 70.5394 817.719 71.6247C820.147 72.8098 822.168 74.6954 823.524 77.0404C825.528 80.5369 827.097 84.2679 828.195 88.1493L839.251 121.254C840.48 124.883 842.083 128.373 844.033 131.668C845.437 133.999 847.535 135.825 850.03 136.89C853.153 138.049 856.458 138.633 859.787 138.612L867.72 139.028V136.917C866.363 136.311 865.098 135.516 863.961 134.557C862.698 133.303 861.693 131.812 861.003 130.169C859.746 127.191 858.729 124.117 857.963 120.976L848.4 89.288C847.463 85.3258 845.924 81.5321 843.839 78.0401C842.028 75.2219 839.537 72.9099 836.597 71.3193C832.801 69.3699 828.769 67.9229 824.602 67.0145V66.4035C845.221 62.5895 855.531 52.036 855.531 34.7431C855.763 30.065 854.833 25.4023 852.826 21.1749C850.819 16.9474 847.797 13.2878 844.033 10.5256C836.386 4.8601 825.33 2.02733 810.865 2.02733H778.692V4.08254ZM717.084 6.52643H725.016C743.737 6.52643 753.089 17.6354 753.07 39.8532C753.052 62.071 743.701 73.3096 725.016 73.5688H717.084V6.52643ZM725.21 138.945V136.917C722.652 136.382 720.396 134.881 718.908 132.724C717.481 129.773 716.852 126.498 717.084 123.226V78.0401H724.823C739.859 78.0401 751.412 74.7445 759.483 68.1532C767.554 61.5619 771.589 52.1286 771.589 39.8532C771.589 27.5778 767.554 18.2093 759.483 11.7476C751.412 5.28594 739.988 2.04584 725.21 2.02733H693.092V4.08254C694.094 4.30345 695.034 4.74751 695.843 5.38199C696.651 6.01646 697.307 6.8251 697.763 7.74842C698.871 10.544 699.361 13.5478 699.201 16.5523V124.225C699.377 127.294 698.886 130.365 697.763 133.224C697.312 134.153 696.658 134.969 695.849 135.608C695.04 136.248 694.098 136.695 693.092 136.917V138.945H725.21ZM618.659 139.473C621.301 138.539 623.854 137.368 626.287 135.973L632.285 132.502C633.689 131.605 635.296 131.079 636.956 130.974C637.837 130.951 638.713 131.123 639.52 131.478C640.327 131.833 641.047 132.363 641.627 133.029C643.233 135.158 644.407 137.583 645.082 140.167H646.713V80.0953C646.546 77.0633 647.036 74.031 648.15 71.2082C648.563 70.2791 649.181 69.4563 649.957 68.8021C650.732 68.1478 651.646 67.6791 652.628 67.4312V65.376H622.224V67.4867C623.419 67.6708 624.55 68.1504 625.515 68.8824C626.48 69.6144 627.249 70.5759 627.752 71.6803C628.974 75.2485 629.49 79.0221 629.272 82.7892V114.7C629.336 118.543 628.503 122.347 626.84 125.809C625.323 128.95 623.006 131.633 620.124 133.585C617.226 135.482 613.824 136.45 610.367 136.362C606.995 136.349 603.67 135.571 600.64 134.085C597.611 132.599 594.955 130.444 592.871 127.78C587.362 120.608 583.578 112.253 581.815 103.369C579.028 90.9319 577.729 78.2054 577.945 65.4593C577.752 54.4415 578.979 43.445 581.594 32.7435C583.355 25.0002 586.916 17.7863 591.986 11.6921C593.941 9.3918 596.37 7.54501 599.104 6.2792C601.838 5.01339 604.813 4.35864 607.824 4.36019C621.533 4.36019 632.11 17.5706 639.554 43.9913H641.406L639.775 0.888652H638.559C638.036 2.08478 637.183 3.10519 636.1 3.82878C635.017 4.55237 633.751 4.94879 632.451 4.97118C630.465 4.86599 628.507 4.45381 626.647 3.7492C624.27 2.91603 621.506 2.08291 618.355 1.19419C614.939 0.274044 611.415 -0.174465 607.879 -0.13891C600.983 -0.17264 594.204 1.65964 588.255 5.16561C581.982 8.95106 576.583 14.035 572.417 20.0793C567.66 26.9294 564.082 34.5337 561.832 42.5749C559.259 51.6032 557.993 60.9565 558.073 70.3472C557.959 80.107 559.187 89.8357 561.721 99.2582C563.866 107.233 567.414 114.757 572.196 121.476C576.428 127.422 581.959 132.315 588.366 135.779C594.821 139.188 602.024 140.916 609.316 140.806C612.567 140.84 615.8 140.324 618.88 139.278M491.571 138.75V136.917C488.73 135.8 486.059 134.286 483.639 132.418C481.605 130.805 479.969 128.743 478.857 126.392C477.557 123.48 476.735 120.375 476.425 117.199C475.893 112.59 475.652 107.952 475.706 103.313V26.9669L540.77 140.389H543.23V35.132C543.149 29.7753 543.454 24.4197 544.142 19.1073C544.508 15.7783 545.583 12.5675 547.293 9.69251C548.916 7.35675 551.079 5.4509 553.595 4.13805V2.08293H524.297V4.13805C527.4 5.59452 530.168 7.68481 532.423 10.2757C534.518 13.047 535.852 16.3222 536.293 19.7739C537.058 25.154 537.4 30.5865 537.315 36.0207V98.9527L482.395 2.02733H458.791V4.08254C460.51 4.82197 462.041 5.94224 463.268 7.35965C465.139 9.53889 466.84 11.8602 468.354 14.3027L469.792 16.7467V104.007C469.882 109.75 469.503 115.49 468.658 121.171C468.195 124.768 466.949 128.22 465.01 131.28C463.198 133.721 460.776 135.637 457.989 136.834V138.862L491.571 138.75ZM451.107 138.75V136.917C450.095 136.698 449.15 136.239 448.352 135.577C447.553 134.914 446.925 134.07 446.519 133.113C445.488 130.27 445.037 127.247 445.192 124.225V16.7467C445.025 13.688 445.476 10.6269 446.519 7.74842C446.948 6.82129 447.586 6.00729 448.382 5.37097C449.178 4.73465 450.111 4.29356 451.107 4.08254V2.02733H420.98V4.08254C421.982 4.30345 422.922 4.74751 423.73 5.38199C424.539 6.01646 425.195 6.8251 425.651 7.74842C426.768 10.6092 427.258 13.6784 427.088 16.7467V124.225C427.264 127.294 426.774 130.365 425.651 133.224C425.2 134.153 424.545 134.969 423.736 135.608C422.928 136.248 421.985 136.695 420.98 136.917V138.945L451.107 138.75ZM362.826 6.33209C380.184 6.33209 388.862 15.534 388.862 33.9378C388.862 44.1209 386.596 51.9157 382.063 57.322C379.662 60.0583 376.671 62.2085 373.319 63.6089C369.966 65.0093 366.34 65.6231 362.715 65.4038H354.423V6.52643L362.826 6.33209ZM330.488 3.88811C331.506 4.11516 332.459 4.57367 333.273 5.22841C334.088 5.88316 334.742 6.71668 335.186 7.6651C336.276 10.4941 336.756 13.5231 336.596 16.5523V124.031C336.759 127.06 336.278 130.09 335.186 132.918C334.747 133.873 334.095 134.713 333.28 135.373C332.465 136.033 331.509 136.495 330.488 136.723V138.75H360.394V136.917C359.408 136.669 358.492 136.196 357.716 135.537C356.94 134.877 356.324 134.048 355.916 133.113C354.824 130.284 354.344 127.255 354.506 124.225V70.0973H361.057C363.952 69.9972 366.835 70.5179 369.515 71.6247C371.939 72.8044 373.952 74.692 375.291 77.0404C377.318 80.5291 378.897 84.2618 379.99 88.1493L391.046 121.254C392.263 124.888 393.867 128.379 395.828 131.668C397.232 133.999 399.33 135.825 401.826 136.89C404.948 138.049 408.253 138.633 411.582 138.612L419.515 139.028V136.917C418.158 136.311 416.893 135.516 415.756 134.557C414.493 133.303 413.488 131.812 412.798 130.169C411.541 127.191 410.525 124.117 409.758 120.976L400.195 89.288C399.258 85.3258 397.72 81.5321 395.634 78.0401C393.823 75.2219 391.332 72.9099 388.393 71.3193C384.594 69.3738 380.563 67.927 376.397 67.0145V66.4035C397.016 62.5895 407.326 52.036 407.326 34.7431C407.558 30.065 406.629 25.4023 404.622 21.1749C402.614 16.9474 399.592 13.2878 395.828 10.5256C388.181 4.8601 377.125 2.02733 362.66 2.02733H330.322L330.488 3.88811ZM272.14 6.33209C289.498 6.33209 298.177 15.534 298.177 33.9378C298.177 44.1302 295.883 51.9342 291.35 57.322C288.954 60.0649 285.964 62.2196 282.61 63.6205C279.256 65.0215 275.627 65.6315 272.002 65.4038H263.71V6.52643L272.14 6.33209ZM239.802 3.88811C240.816 4.11706 241.764 4.57653 242.574 5.2313C243.384 5.88607 244.033 6.71867 244.473 7.6651C245.573 10.4916 246.063 13.521 245.91 16.5523V124.031C246.066 127.062 245.576 130.092 244.473 132.918C244.04 133.872 243.393 134.712 242.583 135.373C241.772 136.033 240.82 136.495 239.802 136.723V138.75H269.68V136.917C268.7 136.663 267.791 136.188 267.02 135.529C266.249 134.87 265.637 134.044 265.23 133.113C264.114 130.291 263.623 127.258 263.793 124.225V70.0973H270.509C273.395 69.9995 276.269 70.5201 278.939 71.6247C281.367 72.8098 283.388 74.6954 284.744 77.0404C286.76 80.531 288.33 84.2635 289.415 88.1493L300.471 121.254C301.7 124.883 303.303 128.373 305.252 131.668C306.664 133.992 308.76 135.817 311.25 136.89C314.381 138.053 317.697 138.636 321.035 138.612L328.967 139.028V136.917C327.602 136.311 326.328 135.516 325.181 134.557C323.928 133.301 322.932 131.81 322.251 130.169C320.982 127.193 319.956 124.119 319.183 120.976L309.647 89.288C308.69 85.3281 307.143 81.536 305.059 78.0401C303.265 75.2175 300.781 72.9037 297.845 71.3193C294.044 69.3789 290.013 67.9323 285.849 67.0145V66.4035C306.45 62.5895 316.751 52.036 316.751 34.7431C316.983 30.065 316.053 25.4023 314.046 21.1749C312.039 16.9474 309.017 13.2878 305.252 10.5256C297.587 4.8601 286.531 2.02733 272.085 2.02733H239.746L239.802 3.88811ZM183.057 34.9375L198.923 87.2605H167.773L183.057 34.9375ZM170.343 138.945V136.917C167.145 136.094 164.334 134.171 162.4 131.482C160.466 128.793 159.531 125.508 159.757 122.198C160.149 115.586 161.384 109.053 163.433 102.758L166.474 91.9263H199.918L208.652 120.726C209.327 122.624 209.844 124.575 210.2 126.558C210.389 127.874 210.49 129.201 210.504 130.53C210.629 132.013 210.196 133.489 209.29 134.667C208.384 135.844 207.071 136.638 205.612 136.89V138.917H237.342V136.917C236.038 136.151 234.84 135.218 233.776 134.14C232.54 132.693 231.516 131.075 230.736 129.336C229.426 126.448 228.3 123.48 227.364 120.448L190.161 0.69431H188.116L156.192 105.924C154.036 113.005 152.156 118.56 150.664 122.587C149.497 125.857 147.888 128.95 145.882 131.78C144.249 133.86 142.231 135.605 139.94 136.917V138.945H170.343ZM131.095 138.945V136.917C129.818 136.746 128.59 136.312 127.487 135.643C126.383 134.974 125.429 134.084 124.682 133.029C123.29 129.961 122.691 126.589 122.941 123.226V6.3876H126.009C129.494 6.42736 132.923 7.27814 136.025 8.87311C139.128 10.4681 141.821 12.7638 143.892 15.5802C148.37 21.4309 151.834 30.6235 154.285 43.1581H155.888L153.649 2.08293H74.0191L71.8078 43.1581H73.4109C75.8709 30.4939 79.2706 21.2735 83.693 15.3858C85.7855 12.5733 88.5006 10.2887 91.6235 8.7125C94.7465 7.1363 98.1915 6.31183 101.686 6.30429H104.754V123.198C105.005 126.561 104.406 129.933 103.013 133.002C102.267 134.057 101.312 134.946 100.209 135.615C99.1058 136.284 97.8777 136.718 96.6007 136.89V138.917L131.095 138.945ZM56.4678 136.168C61.3119 132.781 65.1364 128.121 67.5237 122.698C70.281 116.461 71.6398 109.692 71.5038 102.869C71.67 96.5987 70.6282 90.3558 68.4358 84.4833C66.5656 79.6757 63.8505 75.245 60.4203 71.4026C57.1276 67.7375 53.4167 64.475 49.3644 61.6823C45.3014 58.905 41.266 56.2666 37.2582 53.8227C33.3966 51.4934 29.7022 48.895 26.2023 46.0465C22.9045 43.4381 20.0965 40.2592 17.9104 36.6594C15.7329 32.8047 14.6436 28.4261 14.7596 23.9952C14.5096 18.8135 16.3078 13.7424 19.7624 9.88694C21.4139 8.13023 23.4197 6.7482 25.6458 5.83339C27.8718 4.91858 30.2667 4.49209 32.6701 4.58242C44.8684 4.58242 54.2935 16.1542 60.9454 39.2978H62.5486L61.9406 1.11088H60.7244C60.067 2.24094 59.1538 3.19941 58.059 3.9087C56.9641 4.618 55.7182 5.05816 54.4225 5.19341C52.737 5.11023 51.0841 4.69503 49.5579 3.97142C47.6507 3.13825 45.329 2.30505 42.6203 1.41633C39.4571 0.463657 36.1651 0.0139209 32.8636 0.0833161C27.3764 -0.014363 21.9762 1.4698 17.3024 4.36019C12.7367 7.2619 9.04743 11.3627 6.63357 16.219C4.2274 21.3809 2.91373 26.9884 2.77576 32.6868C2.63778 38.3851 3.67841 44.0502 5.83191 49.3236C7.77811 53.7199 10.5354 57.706 13.958 61.0713C17.3916 64.4626 21.0885 67.5737 25.0138 70.375C29.0216 73.1523 33.057 75.9295 37.12 78.7067C41.059 81.3356 44.7587 84.3095 48.1759 87.5938C51.4883 90.7845 54.2033 94.5473 56.1915 98.7027C58.3388 103.332 59.3889 108.399 59.2594 113.505C59.5312 119.519 57.6484 125.431 53.9527 130.169C52.2218 132.25 50.0379 133.903 47.5698 135.001C45.1016 136.099 42.4151 136.612 39.7182 136.501C22.9133 136.501 10.2358 121.92 1.68596 92.7595H-0.138184L2.62578 139.972H3.84194C6.82702 136.306 9.72911 134.418 12.576 134.418C14.706 134.514 16.79 135.073 18.6844 136.057C21.4574 137.334 24.3103 138.429 27.225 139.334C31.3197 140.516 35.5694 141.069 39.8288 140.972C45.7317 141.112 51.5303 139.393 56.4126 136.057" fill="black"/>
</g>
</g>
<defs>
<clipPath id="clip0_21_1424">
<rect width="1412" height="141" fill="white"/>
</clipPath>
</defs>
</svg>
